<svg xmlns="http://www.w3.org/2000/svg" viewBox="0 0 512 512" width="512" height="512" style='fill:#ee7700; color: #ee7700;'>
	<style>
		tspan { white-space:pre }
		.shp0 { fill: #ee7700 } 
	</style>
	<path id="Layer" fill-rule="evenodd" class="shp0" d="M512 256L512 478.1C512 495.8 498.4 510.6 480.7 512.1C463 513.5 447.2 501.1 444.3 483.6L330.8 426.8L315.8 426.8L315.8 486.5C315.8 500.6 304.3 512.1 290.2 512.1L270.1 512.1C257.9 512.1 247.4 503.5 245 491.5L232 426.7L42.7 426.7C19.1 426.6 0 407.6 0 384L0 42.7C0 19.1 19.1 0 42.7 0L384 0C407.6 0 426.6 19.1 426.7 42.7L426.7 259.3L444.3 250.5C447 234 461.2 221.9 477.9 221.9C496.7 221.9 512 237.2 512 256ZM298.7 486.4L298.6 486.4L298.6 426.6L249.3 426.6L261.6 488C262.4 492 265.9 494.9 270 494.9L290.2 494.9C294.9 494.9 298.7 491.1 298.7 486.4ZM324.3 409.6L324.2 324.3L238.9 324.3C224.8 324.3 213.3 335.8 213.3 349.9L213.3 384C213.3 398.1 224.8 409.6 238.9 409.6L324.3 409.6ZM330.8 307.2L409.6 267.8L409.6 42.7C409.6 28.6 398.1 17.1 384 17.1L42.7 17.1C28.6 17.1 17.1 28.6 17.1 42.7L17.1 383.9C17.1 398 28.6 409.5 42.7 409.5L205 409.5C199.3 402.2 196.2 393.2 196.2 383.9L196.2 375.4L93.8 375.4L93.8 383.9C93.8 388.6 90 392.4 85.3 392.4C80.6 392.4 76.8 388.6 76.8 383.9L76.8 375.4L42.7 375.4C38 375.4 34.2 371.6 34.2 366.9C34.2 362.2 38 358.4 42.7 358.4L76.9 358.4L76.9 349.9C76.9 345.2 80.7 341.4 85.4 341.4C90.1 341.4 93.9 345.2 93.9 349.9L93.9 358.4L196.2 358.4L196.2 349.9C196.3 326.3 215.3 307.2 238.9 307.2L330.8 307.2ZM443.7 464.1L443.7 269.8L341.3 321L341.3 412.9L443.7 464.1ZM494.9 256C494.9 246.5 487.3 238.9 477.8 238.9C468.3 238.9 460.7 246.6 460.7 256L460.7 477.9C460.7 487.4 468.3 495 477.8 495C487.3 495 494.9 487.3 494.9 477.9L494.9 256Z" />
	<path id="Layer" class="shp0" d="M341.3 34.1C336.6 34.1 332.8 37.9 332.8 42.6L332.8 51.1C332.8 53.4 333.7 55.5 335.3 57.1C336.9 58.7 339.1 59.6 341.3 59.6C343.6 59.6 345.7 58.7 347.3 57.1C348.9 55.5 349.8 53.3 349.8 51.1L349.8 42.6C349.9 38 346 34.1 341.3 34.1Z" />
	<path id="Layer" class="shp0" d="M307.2 34.1C302.5 34.1 298.7 37.9 298.7 42.6L298.7 51.1C298.7 53.4 299.6 55.5 301.2 57.1C302.8 58.7 305 59.6 307.2 59.6C309.5 59.6 311.6 58.7 313.2 57.1C314.8 55.5 315.7 53.3 315.7 51.1L315.7 42.6C315.7 38 311.9 34.1 307.2 34.1Z" />
	<path id="Layer" class="shp0" d="M375.5 34.1C370.8 34.1 367 37.9 367 42.6L367 253.8C367 256.1 367.9 258.2 369.5 259.8C371.1 261.4 373.3 262.3 375.5 262.3C377.8 262.3 379.9 261.4 381.5 259.8C383.1 258.2 384 256 384 253.8L384 42.6C384 38 380.2 34.1 375.5 34.1Z" />
	<path id="Layer" class="shp0" d="M98.7 73.9C94 73.9 90.2 77.7 90.2 82.4L90.2 293.6C90.2 295.9 91.1 298 92.7 299.6C94.3 301.2 96.5 302.1 98.7 302.1C101 302.1 103.1 301.2 104.7 299.6C106.3 298 107.2 295.8 107.2 293.6L107.2 82.4C107.2 77.8 103.4 73.9 98.7 73.9Z" />
	<path id="Layer" class="shp0" d="M49.6 59.5C56.4 59.5 61.9 54 61.9 47.2C61.9 40.4 56.4 35 49.6 35L49.5 35C42.7 35 37.3 40.5 37.3 47.3C37.3 54.1 42.8 59.5 49.6 59.5Z" />
	<path id="Layer" class="shp0" d="M49.6 108.5C56.4 108.5 61.9 103 61.9 96.2C61.9 89.4 56.4 84 49.6 84L49.5 84C42.7 84 37.3 89.5 37.3 96.3C37.3 103.1 42.8 108.5 49.6 108.5Z" />
	<path id="Layer" class="shp0" d="M49.6 157.5C56.4 157.5 61.9 152 61.9 145.2C61.9 138.4 56.4 133 49.6 133L49.5 133C42.7 133 37.3 138.5 37.3 145.3C37.3 152.1 42.8 157.5 49.6 157.5Z" />
	<path id="Layer" class="shp0" d="M49.6 206.5C56.4 206.5 61.9 201 61.9 194.2C61.9 187.4 56.4 181.9 49.6 181.9L49.5 181.9C42.7 181.9 37.3 187.4 37.3 194.2C37.3 201.1 42.8 206.5 49.6 206.5Z" />
	<path id="Layer" class="shp0" d="M98.6 59.5C105.4 59.5 110.9 54 110.9 47.2C110.9 40.4 105.4 35 98.6 35L98.5 35C91.7 35 86.3 40.5 86.3 47.3C86.3 54.1 91.9 59.5 98.6 59.5Z" />
	<path id="Layer" class="shp0" d="M147.7 59.5C154.5 59.5 160 54 160 47.2C160 40.4 154.4 35 147.7 35L147.6 35C140.8 35 135.4 40.5 135.4 47.3C135.4 54.1 140.9 59.5 147.7 59.5Z" />
	<path id="Layer" class="shp0" d="M196.7 35L196.6 35C189.8 35 184.4 40.5 184.4 47.3C184.4 54.1 189.9 59.6 196.7 59.6C203.5 59.6 209 54.1 209 47.3C209 40.5 203.5 35 196.7 35Z" />
	<path id="Layer" class="shp0" d="M245.7 35L245.6 35C238.8 35 233.4 40.5 233.4 47.3C233.4 54.1 238.9 59.6 245.7 59.6C252.5 59.6 258 54.1 258 47.3C258 40.5 252.5 35 245.7 35Z" />
	<path id="Layer" class="shp0" d="M49.6 255.9C56.4 255.9 61.9 250.4 61.9 243.6C61.9 236.8 56.4 231.3 49.6 231.3L49.5 231.3C42.7 231.3 37.3 236.8 37.3 243.6C37.3 250.4 42.8 255.9 49.6 255.9Z" />
	<path id="Layer" class="shp0" d="M169.2 214.2L201.9 214.2L201.9 246.9C201.9 252.4 206.3 256.8 211.8 256.8C217.3 256.8 221.7 252.4 221.7 246.9L221.7 214.2L254.4 214.2C259.9 214.2 264.3 209.8 264.3 204.3C264.3 198.8 259.9 194.4 254.4 194.4L221.7 194.4L221.7 161.7C221.7 156.2 217.3 151.8 211.8 151.8C206.3 151.8 201.9 156.2 201.9 161.7L201.9 194.4L169.2 194.4C163.7 194.4 159.3 198.8 159.3 204.3C159.3 209.8 163.7 214.2 169.2 214.2Z" />
</svg>