<svg xmlns="http://www.w3.org/2000/svg" viewBox="0 0 63 62" width="63" height="62" style='fill:#ee7700; color: #ee7700;'>
	<defs>
		<linearGradient id="grd1" gradientUnits="userSpaceOnUse"  x1="0.947" y1="4.068" x2="62.405" y2="57.491">
			<stop offset="0" stop-color="#003dcd"  />
			<stop offset="1" stop-color="#0059e3"  />
		</linearGradient>
	</defs>
	<style>
		tspan { white-space:pre }
		.shp0 { fill: #ee7700 } 
	</style>
	<path id="Social Media Marketing" class="shp0" d="M59.19 23.43C61.73 20.32 62.84 16.29 62.25 12.32C61.1 4.49 53.82 -0.92 45.99 0.22C42.45 0.74 39.24 2.56 36.98 5.31C35.19 7.6 32.23 8.61 29.42 7.91C27.06 7.26 24.58 7.08 22.15 7.39C13.92 8.5 7.43 14.93 6.24 23.15C5.73 26.81 6.35 30.55 8 33.86C4.05 33.92 0.89 37.17 0.95 41.12C1 44.68 3.66 47.66 7.18 48.11L8.29 59.44C8.29 60.57 9.21 61.49 10.34 61.49L16.31 61.49C16.91 61.49 17.48 61.23 17.87 60.77C18.27 60.29 18.44 59.65 18.32 59.03L15.58 48.18L16.09 48.18C17.22 48.19 18.35 48.27 19.48 48.43C23.15 56.39 31.13 61.49 39.9 61.49C40.58 61.49 41.26 61.46 41.95 61.4C52.81 60.32 61.37 51.67 62.32 40.81C62.73 35.98 61.55 31.16 58.97 27.06C58.26 25.93 58.35 24.47 59.19 23.43ZM7.1 46.03C4.33 45.47 2.54 42.77 3.1 40C3.51 37.99 5.08 36.41 7.1 36L7.1 46.03ZM16.31 59.44L10.33 59.34L9.25 48.18L13.47 48.18L16.31 59.44ZM9.14 46.14L9.14 35.9L11.19 35.9L11.19 46.14L9.14 46.14ZM16.09 46.14L13.24 46.14L13.24 35.9L16.09 35.9C19.06 35.9 22.01 35.42 24.83 34.48L29.62 32.89L29.62 49.15L24.83 47.55C22.01 46.61 19.06 46.13 16.09 46.14ZM60.28 40.64C59.37 51.89 49.51 60.28 38.26 59.38C31.42 58.83 25.31 54.88 22 48.88C22.73 49.06 23.46 49.26 24.18 49.49L35.45 53.25C35.55 53.28 35.66 53.3 35.77 53.3C36.33 53.3 36.79 52.84 36.79 52.28L36.79 47.16C39.05 47.16 40.89 45.33 40.89 43.06L40.89 38.97C40.89 36.71 39.05 34.88 36.79 34.88L36.79 29.76C36.79 29.2 36.33 28.74 35.77 28.74C35.66 28.74 35.55 28.75 35.44 28.79L24.18 32.54C21.57 33.41 18.84 33.85 16.09 33.85L10.34 33.85C8.5 30.7 7.77 27.03 8.27 23.41C9.51 14.46 17.77 8.21 26.73 9.44C27.45 9.54 28.16 9.69 28.87 9.88C32.46 10.8 36.26 9.52 38.56 6.61C42.85 1.36 50.58 0.58 55.84 4.86C61.1 9.15 61.88 16.88 57.59 22.13C56.2 23.85 56.05 26.27 57.23 28.15C59.57 31.87 60.64 36.26 60.28 40.64ZM31.67 49.83L31.67 32.2L34.74 31.18L34.74 50.86L31.67 49.83ZM36.79 45.11L36.79 36.92C37.92 36.92 38.84 37.84 38.84 38.97L38.84 43.06C38.84 44.2 37.92 45.11 36.79 45.11ZM15.29 42.04L19.38 42.04L19.38 44.09L15.29 44.09L15.29 42.04ZM15.29 37.95L19.38 37.95L19.38 40L15.29 40L15.29 37.95ZM53 13.84C52.93 13.73 52.83 13.63 52.72 13.56L46.58 9.46C46.11 9.15 45.47 9.28 45.16 9.75C45.04 9.91 44.98 10.11 44.98 10.31L44.98 18.5C44.98 18.88 45.19 19.23 45.52 19.41C45.86 19.58 46.26 19.56 46.58 19.35L52.72 15.26C53.19 14.95 53.32 14.31 53 13.84ZM47.03 16.59L47.03 12.23L50.31 14.41L47.03 16.59ZM48.06 5.2C42.97 5.2 38.84 9.32 38.84 14.41C38.85 19.49 42.97 23.61 48.06 23.62C53.15 23.62 57.27 19.49 57.27 14.41C57.27 9.32 53.15 5.2 48.06 5.2ZM48.06 21.57C44.1 21.57 40.89 18.36 40.89 14.41C40.89 10.45 44.1 7.25 48.06 7.24C52.01 7.24 55.22 10.45 55.22 14.41C55.22 18.36 52.01 21.57 48.06 21.57ZM27.58 18.5L26.55 18.5C25.99 18.5 25.53 18.04 25.53 17.48L25.53 14.41C25.53 12.71 24.15 11.34 22.46 11.34C20.76 11.34 19.38 12.71 19.38 14.41L19.38 17.48C19.38 18.04 18.93 18.5 18.36 18.5C18.36 17.94 17.9 17.48 17.34 17.48L13.24 17.48C12.68 17.48 12.22 17.94 12.22 18.5L12.22 29.76C12.22 30.33 12.68 30.78 13.24 30.78L17.34 30.78C17.9 30.78 18.36 30.33 18.36 29.76L27.58 29.76C29.27 29.76 30.65 28.39 30.65 26.69L30.65 21.57C30.65 19.88 29.27 18.5 27.58 18.5ZM16.31 28.74L14.26 28.74L14.26 19.53L16.31 19.53L16.31 28.74ZM28.6 26.69C28.6 27.25 28.14 27.71 27.58 27.71L18.36 27.71L18.36 20.55C20.06 20.55 21.43 19.17 21.43 17.48L21.43 14.41C21.43 13.84 21.89 13.38 22.46 13.38C23.02 13.38 23.48 13.84 23.48 14.41L23.48 17.48C23.48 19.17 24.86 20.55 26.55 20.55L27.58 20.55C28.14 20.55 28.6 21.01 28.6 21.57L28.6 26.69ZM57.39 37.23L56.96 36.8C55.92 35.76 54.3 35.6 53.08 36.41L51.98 37.15L50.87 36.41C49.65 35.6 48.03 35.76 46.99 36.8L46.55 37.23C45.36 38.43 45.36 40.38 46.55 41.58L51.25 46.27C51.65 46.67 52.3 46.67 52.7 46.27L57.39 41.58C58.59 40.38 58.59 38.43 57.39 37.23ZM55.95 40.13C55.95 40.13 55.95 40.13 55.95 40.13L51.98 44.1L48 40.13C47.6 39.73 47.6 39.08 48 38.68L48.44 38.25C48.79 37.9 49.33 37.85 49.73 38.12L51.41 39.24C51.75 39.46 52.2 39.46 52.54 39.24L54.22 38.12C54.63 37.85 55.17 37.9 55.51 38.25L55.51 38.24L55.95 38.68C56.35 39.08 56.35 39.73 55.95 40.13ZM39.9 31.56L40.92 27.47L42.91 27.96L41.88 32.06L39.9 31.56ZM42.48 32.94L46.57 30.89L47.49 32.72L43.39 34.77L42.48 32.94ZM39.89 51.5L41.88 51L42.9 55.1L40.91 55.59L39.89 51.5ZM42.48 50.12L43.39 48.29L47.49 50.34L46.57 52.17L42.48 50.12ZM1.98 27.71L4.02 27.71C4.02 13.82 12.26 5.2 25.53 5.2L25.53 3.15C11 3.15 1.98 12.57 1.98 27.71Z" />
</svg>