<svg xmlns="http://www.w3.org/2000/svg" viewBox="0 0 496 496" width="496" height="496"  style='fill:#ee7700; color: #ee7700;'>
	<style>
		tspan { white-space:pre }
		.shp0 { fill: #ee7700 } 
	</style>
	<path id="Layer" class="shp0" d="M120 32L200 32L200 48L120 48L120 32Z" />
	<path id="Layer" class="shp0" d="M144 96L128 96L128 184L112 184L112 120L96 120L96 184L80 184L80 144L64 144L64 184L48 184L48 200L160 200L160 184L144 184L144 96Z" />
	<path id="Layer" class="shp0" d="M48 216L64 216L64 232L48 232L48 216Z" />
	<path id="Layer" class="shp0" d="M80 216L160 216L160 232L80 232L80 216Z" />
	<path id="Layer" fill-rule="evenodd" class="shp0" d="M472 328C469.18 328 466.51 327.43 464 326.53L464 480L496 480L496 496L0 496L0 480L26.53 480L80 342.5L80 320L0 320L0 272L16 272L16 80L0 80L0 32L84.69 32L116.69 0L203.31 0L235.31 32L320 32L320 80L304 80L304 120L303.63 120L331.17 151.47L376 145.06L376 131.68C366.21 122.88 360 110.17 360 96L360 80C360 53.53 381.53 32 408 32C434.47 32 456 53.53 456 80L456 96C456 110.18 449.79 122.89 440 131.68L440 145.06L468.53 149.14C484.18 151.38 496 164.99 496 180.82L496 304C496 317.23 485.23 328 472 328ZM324.83 168.53L270.91 106.9C269.3 105.05 266.96 104 264.5 104C259.82 104 256 107.82 256 112.5L256 114.21C256 116.14 256.66 118.02 257.86 119.53L313.44 189C314.97 190.9 317.25 192 319.69 192L368 192L368 272L448 272L448 192L464 192L464 304C464 308.41 467.59 312 472 312C476.41 312 480 308.41 480 304L480 180.81C480 172.9 474.1 166.09 466.27 164.97L435.95 160.64C433.53 163.91 429.72 168.13 424.48 171.32L432.43 234.89L408 259.31L383.57 234.89L391.52 171.32C386.29 168.14 382.48 163.91 380.05 160.64L324.83 168.53ZM376 96C376 113.65 390.35 128 408 128C425.65 128 440 113.65 440 96L440 80C440 62.35 425.65 48 408 48C390.35 48 376 62.35 376 80L376 96ZM392 141.2L392 149.8C393.96 152.83 399.48 160 408 160C416.5 160 422.02 152.86 424 149.8L424 141.2C418.98 142.98 413.62 144 408 144C402.38 144 397.02 142.98 392 141.2ZM408.93 175.95C408.62 175.95 408.32 176 408 176C407.68 176 407.38 175.95 407.07 175.95L400.43 229.11L408 236.69L415.57 229.11L408.93 175.95ZM125.47 352L75.7 480L136 480L136 352L125.47 352ZM152 480L168 480L168 352L152 352L152 480ZM184 480L244.3 480L194.53 352L184 352L184 480ZM261.47 480L276.3 480L226.53 352L211.7 352L261.47 480ZM293.47 480L352 480L352 208L319.69 208C313.82 208 308.34 205.82 304 202.04L304 272L320 272L320 320L240 320L240 342.5L293.47 480ZM368 480L400 480L400 288L368 288L368 480ZM16 64L304 64L304 48L228.69 48L196.69 16L123.31 16L91.31 48L16 48L16 64ZM32 272L288 272L288 182.81L245.37 129.52C241.9 125.18 240 119.74 240 114.21L240 112.5C240 99 251 88 264.5 88C271.57 88 278.3 91.05 282.95 96.37L288 102.14L288 80L32 80L32 272ZM16 304L304 304L304 288L16 288L16 304ZM96 320L96 336L224 336L224 320L96 320ZM43.7 480L58.53 480L108.3 352L93.47 352L43.7 480ZM448 480L448 288L416 288L416 480L448 480Z" />
	<path id="Layer" fill-rule="evenodd" class="shp0" d="M272 208C272 234.47 250.47 256 224 256C197.53 256 176 234.47 176 208C176 181.53 197.53 160 224 160C250.47 160 272 181.53 272 208ZM193.14 200L216 200L216 177.14C204.81 180.05 196.05 188.81 193.14 200ZM216 238.86L216 216L193.14 216C196.05 227.19 204.81 235.95 216 238.86ZM256 208C256 193.14 245.76 180.71 232 177.14L232 238.86C245.76 235.29 256 222.86 256 208Z" />
</svg>