<svg xmlns="http://www.w3.org/2000/svg" viewBox="0 0 67 67" width="67" height="67" style='fill:#ee7700; color: #ee7700;'>
	<defs>
		<linearGradient id="grd1" gradientUnits="userSpaceOnUse"  x1="0.012" y1="5.308" x2="66.002" y2="62.672">
			<stop offset="0" stop-color="#003dcd"  />
			<stop offset="1" stop-color="#0059e3"  />
		</linearGradient>
	</defs>
	<style>
		tspan { white-space:pre }
		.shp0 { fill: #ee7700 } 
	</style>
	<path  style='fill:#ee7700; color: #ee7700;' id="Data Analysis" class="shp0" d="M57.49 7.37L57.49 30.8L66 30.8L66 7.37L57.49 7.37ZM63.87 28.67L59.62 28.67L59.62 9.5L63.87 9.5L63.87 28.67ZM46.84 18.14C46.16 17.53 45.45 16.96 44.72 16.43L44.72 15.89L43.91 15.89C39.77 13.15 34.86 11.63 29.81 11.63L28.75 11.63L28.75 38.25L55.36 38.25L55.36 37.18C55.36 35.02 55.07 32.88 54.53 30.8L55.36 30.8L55.36 11.63L46.84 11.63L46.84 18.14ZM30.88 36.12L30.88 13.79C33.89 13.92 36.83 14.66 39.53 15.89L36.2 15.89L36.2 30.8L44.72 30.8L44.72 19.16C45.46 19.77 46.18 20.42 46.84 21.13L46.84 30.8L52.33 30.8C52.82 32.53 53.12 34.31 53.21 36.12L30.88 36.12ZM42.59 18.02L42.59 28.67L38.33 28.67L38.33 18.02L42.59 18.02ZM48.97 13.76L53.23 13.76L53.23 28.67L48.97 28.67L48.97 13.76ZM8.31 42.28L17.35 33.24L18.86 34.74L9.81 43.79L8.31 42.28ZM12.78 33.99C12.78 32.23 11.35 30.8 9.59 30.8C7.83 30.8 6.4 32.23 6.4 33.99C6.4 35.75 7.83 37.18 9.59 37.18C11.35 37.18 12.78 35.75 12.78 33.99ZM8.53 33.99C8.53 33.4 9 32.92 9.59 32.92C10.18 32.92 10.66 33.4 10.66 33.99C10.66 34.58 10.18 35.05 9.59 35.05C9 35.05 8.53 34.58 8.53 33.99ZM18.11 39.31C16.35 39.31 14.91 40.75 14.91 42.51C14.91 44.27 16.35 45.7 18.11 45.7C19.87 45.7 21.3 44.27 21.3 42.51C21.3 40.75 19.87 39.31 18.11 39.31ZM18.11 43.57C17.52 43.57 17.04 43.09 17.04 42.51C17.04 41.92 17.52 41.44 18.11 41.44C18.69 41.44 19.17 41.92 19.17 42.51C19.17 43.09 18.69 43.57 18.11 43.57ZM46.69 55.75C49.57 51.52 51.1 46.59 51.1 41.44L51.1 40.38L26.62 40.38L26.62 15.89L25.56 15.89C24.51 15.89 23.44 15.98 22.36 16.12L22.36 0.99L0.01 0.99L0.01 15.89L13.41 15.89L15.49 17.97C6.17 21.97 0.01 31.2 0.01 41.44C0.01 55.53 11.47 66.99 25.56 66.99C31.73 66.99 37.62 64.76 42.27 60.73L45.56 64.02C46.21 64.67 47.06 64.99 47.91 64.99C48.76 64.99 49.61 64.67 50.26 64.02C51.55 62.72 51.55 60.62 50.26 59.32L46.69 55.75ZM14.29 13.76L2.14 13.76L2.14 3.12L20.24 3.12L20.24 19.71L14.29 13.76ZM25.56 64.86C12.64 64.86 2.14 54.36 2.14 41.44C2.14 31.76 8.14 23.08 17.12 19.61L22.36 24.85L22.36 18.25C23.08 18.16 23.79 18.08 24.49 18.04L24.49 42.51L48.95 42.51C48.76 46.71 47.46 50.71 45.16 54.22L43.46 52.53C43.58 52.04 43.65 51.54 43.65 51.02C43.65 47.5 40.79 44.64 37.26 44.64C33.74 44.64 30.88 47.5 30.88 51.02C30.88 54.55 33.74 57.41 37.26 57.41C37.78 57.41 38.28 57.34 38.77 57.22L40.76 59.22C36.51 62.85 31.17 64.86 25.56 64.86ZM41.52 51.02C41.52 53.37 39.61 55.28 37.26 55.28C34.92 55.28 33.01 53.37 33.01 51.02C33.01 48.67 34.92 46.76 37.26 46.76C39.61 46.76 41.52 48.67 41.52 51.02ZM48.75 62.51C48.29 62.98 47.53 62.98 47.06 62.51L40.85 56.3C41.52 55.85 42.09 55.28 42.54 54.61L48.75 60.83C49.22 61.29 49.22 62.05 48.75 62.51ZM4.27 5.24L18.11 5.24L18.11 7.37L4.27 7.37L4.27 5.24ZM4.27 9.5L18.11 9.5L18.11 11.63L4.27 11.63L4.27 9.5ZM36.2 49.96L38.33 49.96L38.33 52.09L36.2 52.09L36.2 49.96ZM26.62 49.96L28.75 49.96L28.75 52.09L26.62 52.09L26.62 49.96ZM22.36 49.96L24.49 49.96L24.49 52.09L22.36 52.09L22.36 49.96ZM18.11 49.96L20.24 49.96L20.24 52.09L18.11 52.09L18.11 49.96Z" />
</svg>