<svg xmlns="http://www.w3.org/2000/svg" viewBox="0 0 496 496" width="496" height="496" style='fill:#ee7700; color: #ee7700;'>
	<style>
		tspan { white-space:pre }
		.shp0 { fill: #ee7700 } 
	</style>
	<path id="Layer" fill-rule="evenodd" class="shp0" d="M496 152L496 408C496 430.05 478.05 448 456 448L352 448L352 480L384 480L384 496L112 496L112 480L144 480L144 448L40 448C17.95 448 0 430.05 0 408L0 152C0 129.95 17.95 112 40 112L80 112L80 73.3C80 55.57 90.79 39.8 107.08 33.29C123.67 12.4 149.26 0 176 0C221.54 0 259.7 31.91 269.49 74.54C272.68 72.97 276.21 72.01 280 72.01L288.13 72.01C288.12 68.19 288.3 64.36 288.89 60.51C293.77 29.21 320.22 3.95 351.82 0.46C372.3 -1.8 392.78 4.7 408.01 18.34C423.26 31.99 432 51.55 432 72L440 72C453.23 72 464 82.77 464 96L464 112.81C482.23 116.53 496 132.69 496 152ZM304.7 62.97C301.77 81.83 308.36 100.66 322.34 113.37C328.99 119.41 333.45 127.39 335.18 136L352 136L352 94.53C342.71 91.21 336 82.41 336 72C336 58.77 346.77 48 360 48C373.23 48 384 58.77 384 72C384 82.41 377.29 91.21 368 94.53L368 136L384.82 136C386.53 127.39 390.95 119.44 397.57 113.46C409.28 102.86 416 87.74 416 72C416 56.1 409.2 40.88 397.34 30.27C386.94 20.95 373.89 16 360.07 16C357.92 16 355.75 16.12 353.57 16.36C329.04 19.07 308.48 38.67 304.7 62.97ZM360 80C364.41 80 368 76.41 368 72C368 67.59 364.41 64 360 64C355.59 64 352 67.59 352 72C352 76.41 355.59 80 360 80ZM280 88C275.59 88 272 91.59 272 96L272 192C272 196.41 275.59 200 280 200L344 200L344 223.35L373.19 200L440 200C444.41 200 448 196.41 448 192L448 96C448 91.59 444.41 88 440 88L430.14 88C426.86 102.25 419.33 115.34 408.3 125.32C405.08 128.24 402.82 131.96 401.46 136L416 136L416 152L399.19 152C395.47 170.23 379.31 184 360 184C340.68 184 324.53 170.23 320.81 152L304 152L304 136L318.52 136C317.14 131.95 314.84 128.18 311.57 125.21C300.53 115.18 293.11 102.15 289.87 88L280 88ZM40 128C26.77 128 16 138.77 16 152L16 368L480 368L480 152C480 141.59 473.29 132.79 464 129.47L464 192C464 205.23 453.23 216 440 216L378.81 216L328 256.65L328 216L280 216C266.77 216 256 205.23 256 192L256 187.55C251.27 190.3 245.86 192 240 192L235.29 192C231.14 202.2 224.46 211.09 216 217.88L216 233.98L279.52 252.3C303.35 259.18 320 281.3 320 306.11L320 352L32 352L32 306.11C32 281.3 48.65 259.18 72.48 252.31L136 233.98L136 217.88C127.54 211.09 120.86 202.2 116.71 192L112 192C94.35 192 80 177.65 80 160L80 128L40 128ZM239.45 176L240 176C248.82 176 256 168.82 256 160C256 151.18 248.82 144 240 144L240 168C240 170.71 239.78 173.38 239.45 176ZM96 73.3L96 132.45C100.73 129.7 106.14 128 112 128L112 96L240 96L240 128C245.86 128 251.27 129.7 256 132.45L256 96C256 51.89 220.11 16 176 16C153.46 16 131.93 26.77 118.4 44.8L116.89 46.8L114.53 47.59C103.45 51.29 96 61.62 96 73.3ZM129.6 252.48L140.39 290.24L164.02 271.34L141.68 248.99L129.6 252.48ZM176 282.25L164.12 291.75L172.29 304L179.72 304L187.88 291.75L176 282.25ZM76.91 267.68C59.89 272.59 48 288.39 48 306.11L48 336L153.75 336L159.38 313.49L151.57 301.79L131.61 317.76L114.22 256.92L76.91 267.68ZM170.25 336L181.75 336L177.75 320L174.25 320L170.25 336ZM304 336L304 306.11C304 288.39 292.11 272.59 275.09 267.69L237.78 256.93L220.39 317.77L200.43 301.79L192.63 313.5L198.25 336L304 336ZM222.4 252.48L210.32 248.99L187.98 271.34L211.61 290.24L222.4 252.48ZM200 227.29C192.59 230.3 184.49 232 176 232C167.51 232 159.41 230.3 152 227.29L152 236.69L176 260.69L200 236.69L200 227.29ZM224 168L224 112L128 112L128 168C128 194.47 149.53 216 176 216C202.47 216 224 194.47 224 168ZM112 168L112 144C103.18 144 96 151.18 96 160C96 168.82 103.18 176 112 176L112.55 176C112.22 173.38 112 170.71 112 168ZM337.47 152C340.79 161.29 349.59 168 360 168C370.41 168 379.21 161.29 382.53 152L337.47 152ZM336 448L160 448L160 480L336 480L336 448ZM480 408L480 384L16 384L16 408C16 421.23 26.77 432 40 432L456 432C469.23 432 480 421.23 480 408Z" />
	<path id="Layer" class="shp0" d="M192 400L208 400L208 416L192 416L192 400Z" />
	<path id="Layer" class="shp0" d="M224 400L272 400L272 416L224 416L224 400Z" />
	<path id="Layer" class="shp0" d="M288 400L304 400L304 416L288 416L288 400Z" />
	<path id="Layer" class="shp0" d="M448 336L464 336L464 352L448 352L448 336Z" />
	<path id="Layer" class="shp0" d="M336 336L432 336L432 352L336 352L336 336Z" />
	<path id="Layer" class="shp0" d="M336 304L352 304L352 320L336 320L336 304Z" />
	<path id="Layer" class="shp0" d="M368 304L464 304L464 320L368 320L368 304Z" />
	<path id="Layer" class="shp0" d="M336 272L464 272L464 288L336 288L336 272Z" />
</svg>