<svg xmlns="http://www.w3.org/2000/svg" viewBox="0 0 64 64" width="64" height="64" style='fill:#ee7700; color: #ee7700;'>
	<style>
		tspan { white-space:pre }
		.shp0 { fill: #ee7700 } 
	</style>
	<path id="Layer" class="shp0" d="M8 19L27.01 19C27.56 19 28.01 18.55 28.01 18C28.01 17.45 27.56 17 27.01 17L8 17C7.45 17 7 17.45 7 18C7 18.55 7.45 19 8 19L8 19Z" />
	<path id="Layer" class="shp0" d="M30.01 21L10 21C9.45 21 9 21.45 9 22C9 22.55 9.45 23 10 23L30.01 23C30.56 23 31.01 22.55 31.01 22C31.01 21.45 30.56 21 30.01 21Z" />
	<path id="Layer" class="shp0" d="M24.01 45.01L10 45.01C9.45 45.01 9 45.46 9 46.01C9 46.57 9.45 47.01 10 47.01L24.01 47.01C24.56 47.01 25.01 46.57 25.01 46.01C25.01 45.46 24.56 45.01 24.01 45.01Z" />
	<path id="Layer" class="shp0" d="M34.01 23L36.01 23C36.56 23 37.01 22.55 37.01 22C37.01 21.45 36.56 21 36.01 21L34.01 21C33.45 21 33.01 21.45 33.01 22C33.01 22.55 33.45 23 34.01 23Z" />
	<path id="Layer" class="shp0" d="M14 49L8 49C7.45 49 7 49.45 7 50C7 50.55 7.45 51 8 51L14 51C14.56 51 15 50.55 15 50C15 49.45 14.56 49 14 49Z" />
	<path id="Layer" class="shp0" d="M35.01 30C35.01 30.55 35.46 31 36.01 31L59.01 31C59.57 31 60.01 30.55 60.01 30C60.01 29.45 59.57 29 59.01 29L36.01 29C35.46 29 35.01 29.45 35.01 30Z" />
	<path id="Layer" class="shp0" d="M51.02 35C51.57 35 52.02 34.55 52.02 34C52.02 33.45 51.57 33 51.02 33L38.01 33C37.46 33 37.01 33.45 37.01 34C37.01 34.55 37.46 35 38.01 35L51.02 35Z" />
	<path id="Layer" class="shp0" d="M53.01 37L43.01 37C42.46 37 42.01 37.45 42.01 38C42.01 38.55 42.46 39 43.01 39L53.01 39C53.56 39 54.01 38.55 54.01 38C54.01 37.45 53.56 37 53.01 37Z" />
	<path id="Layer" class="shp0" d="M39.01 37L36.01 37C35.46 37 35.01 37.45 35.01 38C35.01 38.55 35.46 39 36.01 39L39.01 39C39.57 39 40.01 38.55 40.01 38C40.01 37.45 39.56 37 39.01 37Z" />
	<path id="Layer" fill-rule="evenodd" class="shp0" d="M63 25C63.55 25 64 25.44 64 26L64 42.01C64 42.56 63.55 43.01 63 43.01L51.99 43.01L51.99 54C51.99 54.55 51.54 55 50.99 55L4.01 55C4.01 55 4 55 4 55C4 55 3.99 55 3.99 55L1.02 55C0.47 55 0.02 54.55 0.02 54L0.02 14.09C0.01 14.06 0 14.03 0 14L0 12C0 10.35 1.35 9 3 9L48.97 9C50.62 9 51.97 10.35 51.97 12L51.97 13.92C51.97 13.95 51.99 13.97 51.99 14C51.99 14.03 51.97 14.06 51.97 14.09L51.97 25L63 25ZM3 11C2.45 11 2 11.45 2 12L2 13L49.97 13L49.97 12C49.97 11.45 49.52 11 48.97 11L10.03 11C10.58 11 11.03 11.45 11.03 12C11.03 12.56 10.58 13 10.03 13C9.48 13 9.03 12.56 9.03 12C9.03 11.45 9.47 11 10.02 11L7.03 11C7.58 11 8.03 11.45 8.03 12C8.03 12.56 7.58 13 7.03 13C6.48 13 6.03 12.56 6.03 12C6.03 11.45 6.47 11 7.02 11L4.03 11C4.58 11 5.03 11.45 5.03 12C5.03 12.56 4.58 13 4.03 13C3.48 13 3.03 12.56 3.03 12C3.03 11.45 3.47 11 4.02 11L3 11ZM2.02 53L3 53L3 15L2.02 15L2.02 53ZM49.99 53L49.99 43.01L32.01 43.01C31.46 43.01 31.01 42.56 31.01 42.01L31.01 26C31.01 25.45 31.46 25 32.01 25L49.97 25L49.97 15L5 15L5 53L49.99 53ZM62 27L33.01 27L33.01 41.01L62 41.01L62 27Z" />
	<path id="Layer" class="shp0" d="M12.03 27C12.59 27 13.03 26.55 13.03 26C13.03 25.45 12.59 25 12.03 25L12.02 25C11.47 25 11.03 25.45 11.03 26C11.03 26.55 11.48 27 12.03 27L12.03 27Z" />
	<path id="Layer" class="shp0" d="M12.03 31C12.59 31 13.03 30.55 13.03 30C13.03 29.44 12.59 29 12.03 29L12.02 29C11.47 29 11.03 29.44 11.03 30C11.03 30.55 11.48 31 12.03 31L12.03 31Z" />
	<path id="Layer" class="shp0" d="M12.03 34.99C12.59 34.99 13.03 34.55 13.03 33.99C13.03 33.44 12.59 32.99 12.03 32.99L12.02 32.99C11.47 32.99 11.03 33.44 11.03 33.99C11.03 34.55 11.48 34.99 12.03 34.99L12.03 34.99Z" />
	<path id="Layer" class="shp0" d="M12.03 38.99C12.59 38.99 13.03 38.54 13.03 37.99C13.03 37.44 12.59 36.99 12.03 36.99L12.02 36.99C11.47 36.99 11.03 37.44 11.03 37.99C11.03 38.54 11.48 38.99 12.03 38.99L12.03 38.99Z" />
	<path id="Layer" class="shp0" d="M16.03 27C16.59 27 17.03 26.55 17.03 26C17.03 25.45 16.59 25 16.03 25L16.02 25C15.47 25 15.03 25.45 15.03 26C15.03 26.55 15.48 27 16.03 27Z" />
	<path id="Layer" class="shp0" d="M20.03 27C20.59 27 21.03 26.55 21.03 26C21.03 25.45 20.59 25 20.03 25L20.02 25C19.47 25 19.03 25.45 19.03 26C19.03 26.55 19.48 27 20.03 27Z" />
	<path id="Layer" class="shp0" d="M24.03 25L24.02 25C23.47 25 23.03 25.45 23.03 26C23.03 26.55 23.48 27 24.03 27C24.59 27 25.03 26.55 25.03 26C25.03 25.45 24.59 25 24.03 25Z" />
	<path id="Layer" class="shp0" d="M28.03 25L28.02 25C27.47 25 27.03 25.45 27.03 26C27.03 26.55 27.48 27 28.03 27C28.59 27 29.03 26.55 29.03 26C29.03 25.45 28.59 25 28.03 25Z" />
	<path id="Layer" class="shp0" d="M12.03 43.01C12.59 43.01 13.03 42.57 13.03 42.01C13.03 41.46 12.59 41.01 12.03 41.01L12.02 41.01C11.47 41.01 11.03 41.46 11.03 42.01C11.03 42.57 11.48 43.01 12.03 43.01L12.03 43.01Z" />
	<path id="Layer" class="shp0" d="M16.03 43.01C16.59 43.01 17.03 42.57 17.03 42.01C17.03 41.46 16.59 41.01 16.03 41.01L16.02 41.01C15.47 41.01 15.03 41.46 15.03 42.01C15.03 42.57 15.48 43.01 16.03 43.01Z" />
	<path id="Layer" class="shp0" d="M20.03 41.01L20.02 41.01C19.47 41.01 19.03 41.46 19.03 42.01C19.03 42.57 19.48 43.01 20.03 43.01C20.59 43.01 21.03 42.57 21.03 42.01C21.03 41.46 20.59 41.01 20.03 41.01Z" />
	<path id="Layer" class="shp0" d="M24.03 41.01L24.02 41.01C23.47 41.01 23.03 41.46 23.03 42.01C23.03 42.57 23.48 43.01 24.03 43.01C24.59 43.01 25.03 42.57 25.03 42.01C25.03 41.46 24.59 41.01 24.03 41.01Z" />
	<path id="Layer" class="shp0" d="M28.03 41.01L28.02 41.01C27.47 41.01 27.03 41.46 27.03 42.01C27.03 42.57 27.48 43.01 28.03 43.01C28.59 43.01 29.03 42.57 29.03 42.01C29.03 41.46 28.59 41.01 28.03 41.01Z" />
	<path id="Layer" class="shp0" d="M20 35L21 35L21 35.99C21 36.55 21.45 36.99 22 36.99C22.55 36.99 23 36.55 23 35.99L23 35L24 35C24.55 35 25 34.55 25 34C25 33.44 24.55 33 24 33L23 33L23 32C23 31.44 22.55 31 22 31C21.45 31 21 31.44 21 32L21 33L20 33C19.45 33 19 33.44 19 34C19 34.55 19.45 35 20 35Z" />
</svg>